HIERARCHY
ROOT root
{
	OFFSET	0	13.1	24.9
	CHANNELS 6  Xposition Yposition Zposition Xrotation Yrotation Zrotation
	JOINT spine_1
	{
		OFFSET	0	9.99999	0
		CHANNELS 3  Xrotation Yrotation Zrotation
		JOINT spine_2
		{
			OFFSET	0	112	-10
			CHANNELS 3  Xrotation Yrotation Zrotation
			JOINT spine_3
			{
				OFFSET	0	206.5	19.3
				CHANNELS 3  Xrotation Yrotation Zrotation
				JOINT spine_4
				{
					OFFSET	0	110.4	14.6
					CHANNELS 3  Xrotation Yrotation Zrotation
					JOINT neck_1
					{
						OFFSET	0	71.8	-50.3
						CHANNELS 3  Xrotation Yrotation Zrotation
						JOINT neck_2
						{
							OFFSET	0	86.2	-25.8
							CHANNELS 3  Xrotation Yrotation Zrotation
							JOINT head_ee
							{
								OFFSET	0	179.8	-8.7
								CHANNELS 3  Xrotation Yrotation Zrotation
								End Site
								{
									OFFSET	1	0	0
								}
							}
						}
					}
					JOINT left_clavicle
					{
						OFFSET	-43.2	22.4	-70.8
						CHANNELS 3  Xrotation Yrotation Zrotation
						JOINT left_shoulder
						{
							OFFSET	-93.9	-5.79999	48.7
							CHANNELS 3  Xrotation Yrotation Zrotation
							JOINT left_elbow
							{
								OFFSET	-291.4	-30.8	15.2
								CHANNELS 3  Xrotation Yrotation Zrotation
								JOINT left_lowarm_twist
								{
									OFFSET	-110.7	-3.89999	13.6
									CHANNELS 3  Xrotation Yrotation Zrotation
									JOINT left_hand
									{
										OFFSET	-110.7	-3.89999	13.6
										CHANNELS 3  Xrotation Yrotation Zrotation
										JOINT left_ee
										{
											OFFSET	-80.8	-5.10001	12.1
											CHANNELS 3  Xrotation Yrotation Zrotation
											End Site
											{
												OFFSET	1	0	0
											}
										}
									}
								}
							}
						}
					}
					JOINT right_clavicle
					{
						OFFSET	43.2	22.4	-70.8
						CHANNELS 3  Xrotation Yrotation Zrotation
						JOINT right_shoulder
						{
							OFFSET	93.9	-5.79999	48.7
							CHANNELS 3  Xrotation Yrotation Zrotation
							JOINT right_elbow
							{
								OFFSET	291.4	-30.8	15.2
								CHANNELS 3  Xrotation Yrotation Zrotation
								JOINT right_lowarm_twist
								{
									OFFSET	110.7	-3.89999	13.6
									CHANNELS 3  Xrotation Yrotation Zrotation
									JOINT right_hand
									{
										OFFSET	110.7	-3.89999	13.6
										CHANNELS 3  Xrotation Yrotation Zrotation
										JOINT right_ee
										{
											OFFSET	80.8	-5.10001	12.1
											CHANNELS 3  Xrotation Yrotation Zrotation
											End Site
											{
												OFFSET	1	0	0
											}
										}
									}
								}
							}
						}
					}
				}
			}
		}
	}
	JOINT left_hip
	{
		OFFSET	-82.8	-127.5	0.300001
		CHANNELS 3  Xrotation Yrotation Zrotation
		JOINT left_knee
		{
			OFFSET	-28.2	-396.7	2.2
			CHANNELS 3  Xrotation Yrotation Zrotation
			JOINT left_ankle
			{
				OFFSET	-11.7	-411.3	35.4
				CHANNELS 3  Xrotation Yrotation Zrotation
				JOINT left_toes
				{
					OFFSET	0	-60	-88.6
					CHANNELS 3  Xrotation Yrotation Zrotation
					JOINT left_foot_ee
					{
						OFFSET	-22.5	-16.5	-42.2
						CHANNELS 3  Xrotation Yrotation Zrotation
						End Site
						{
							OFFSET	1	0	0
						}
					}
				}
			}
		}
	}
	JOINT right_hip
	{
		OFFSET	82.8	-127.5	0.300001
		CHANNELS 3  Xrotation Yrotation Zrotation
		JOINT right_knee
		{
			OFFSET	28.2	-396.7	2.2
			CHANNELS 3  Xrotation Yrotation Zrotation
			JOINT right_ankle
			{
				OFFSET	11.7	-411.3	35.4
				CHANNELS 3  Xrotation Yrotation Zrotation
				JOINT right_toes
				{
					OFFSET	0	-60	-88.6
					CHANNELS 3  Xrotation Yrotation Zrotation
					JOINT right_foot_ee
					{
						OFFSET	22.5	-16.5	-42.2
						CHANNELS 3  Xrotation Yrotation Zrotation
						End Site
						{
							OFFSET	1	0	0
						}
					}
				}
			}
		}
	}
}
MOTION
Frames: 15
Frame Time: 0.02
408.823387361 725.16 -1252.87453715 2.51740292946 -80.2645440875 8.02430959557 -1.1542 -0.560162 -2.76686 -1.15002 -0.383035 -2.79686 -1.12753 0.268762 -2.81013 -1.1385 -0.178238 -2.81732 -6.42378 3.82164 3.02803 -6.40036 4.86495 3.78167 -0.0 0.0 -0.0 12.1807 -15.6824 24.5867 -42.124 -53.3001 39.1881 0.845577 -22.7274 0.169943 20.5096 0.261064 -2.59295 0.746135 1.07994 5.43092 -0.0 0.0 -0.0 7.1306 -14.9161 -13.3427 -30.2959 35.6539 -47.0999 0.757719 20.5737 -0.137523 -5.15016 0.209682 -0.623835 -1.60941 1.15475 11.3399 0.0 0.0 0.0 5.35579 -9.85271 -2.44726 -22.3092 0.261064 3.39198 -9.66209 -10.6988 1.52637 35.992 -0.0 -0.0 -0.0 0.0 -0.0 11.5766 -32.0276 11.5924 -8.15301 -0.248837 -1.22544 1.70631 -0.969602 0.250728 3.29055 -0.0 -0.0 0.0 0.0 0.0 
411.139462841 725.16 -1251.9850588 3.50706499738 -83.0260665199 9.024296108 -1.1542 -0.560162 -2.76686 -1.15002 -0.383035 -2.79686 -1.12753 0.268762 -2.81013 -1.1385 -0.178238 -2.81732 -6.42378 3.82164 3.02803 -6.40036 4.86495 3.78167 -0.0 0.0 -0.0 12.1807 -15.6824 24.5867 -42.124 -53.3001 39.1881 0.845577 -22.7274 0.169943 20.5096 0.261064 -2.59295 0.746135 1.07994 5.43092 -0.0 0.0 -0.0 7.1306 -14.9161 -13.3427 -30.2959 35.6539 -47.0999 0.757719 20.5737 -0.137523 -5.15016 0.209682 -0.623835 -1.60941 1.15475 11.3399 0.0 0.0 0.0 5.35579 -9.85271 -2.44726 -22.3092 0.261064 3.39198 -9.66209 -10.6988 1.52637 35.992 -0.0 -0.0 -0.0 0.0 -0.0 11.5766 -32.0276 11.5924 -8.15301 -0.248837 -1.22544 1.70631 -0.969602 0.250728 3.29055 -0.0 -0.0 0.0 0.0 0.0 
414.757559082 724.037 -1253.11696185 6.54485207038 -86.1781820476 12.0232666134 -1.24616 -0.505292 -2.74332 -1.24203 -0.329772 -2.76989 -1.22233 0.319062 -2.77114 -1.23303 -0.122416 -2.78675 -6.28403 4.0545 3.32174 -6.25556 5.06935 4.11747 -0.0 0.0 -0.0 12.4938 -17.7923 25.2096 -38.3059 -54.1015 38.1781 0.773234 -20.9586 0.143024 20.3506 0.262631 -2.57271 0.774215 0.999815 5.58618 -0.0 0.0 -0.0 7.72954 -15.87 -14.2691 -31.3557 33.865 -46.6545 0.737661 20.0731 -0.130556 -5.57362 0.229407 -0.674259 -1.421 4.47202 11.5427 0.0 0.0 0.0 5.51906 -9.00449 -2.21706 -22.291 0.261392 3.38921 -9.35657 -9.84938 1.46992 36.0492 -0.0 -0.0 -0.0 0.0 -0.0 13.4398 -32.2736 11.1348 -7.8564 -0.242857 -1.18032 1.21947 -2.2533 0.178946 3.79424 -0.0 -0.0 0.0 0.0 0.0 
418.353564295 723.603 -1253.16119868 7.120465595 -88.3075263618 12.579664025 -1.26365 -0.619351 -2.72996 -1.25961 -0.444449 -2.76381 -1.23424 0.206528 -2.79166 -1.24504 -0.236779 -2.78926 -5.50311 4.49063 3.15136 -5.4754 5.93237 4.00197 -0.0 0.0 -0.0 12.3538 -17.3783 24.9083 -37.5943 -55.1705 36.0073 0.801007 -21.6428 0.153113 19.7264 0.268243 -2.49316 0.737523 0.75062 5.2389 -0.0 0.0 -0.0 8.01974 -16.3298 -14.709 -32.0491 32.7894 -46.6427 0.646241 17.7515 -0.100919 -5.94247 0.246892 -0.718062 -1.34751 4.84334 11.2028 0.0 0.0 0.0 5.24926 -9.54677 -1.83029 -22.5659 0.256343 3.43109 -9.47558 -11.0282 1.49955 34.9649 -0.0 -0.0 -0.0 0.0 -0.0 14.4156 -32.0286 10.2437 -7.15968 -0.227891 -1.07445 1.26382 -1.52014 0.185703 3.84994 -0.0 -0.0 0.0 0.0 0.0 
429.886957395 721.512 -1250.29292794 -122.402700256 -89.7721049081 -117.282113787 -1.33199 -0.651604 -2.56456 -1.32847 -0.48715 -2.60079 -1.30271 0.130388 -2.64278 -1.31234 -0.288478 -2.63023 -4.73448 4.24094 3.94794 -4.69214 4.80129 4.7476 -0.0 0.0 -0.0 12.2402 -17.4527 24.6429 -32.4178 -54.0007 35.3563 0.852933 -22.9047 0.172796 19.0841 0.273111 -2.41127 0.756832 -2.57468 3.99776 -0.0 0.0 -0.0 8.2921 -18.1684 -14.9651 -32.8965 31.8038 -47.1472 0.66992 18.3589 -0.108258 -5.95764 0.247617 -0.719861 -0.893116 6.42031 8.78333 0.0 0.0 0.0 4.70471 -7.29483 -2.08191 -22.4482 0.258529 3.41316 -2.79318 -7.46332 0.427853 32.0521 -0.0 -0.0 -0.0 0.0 -0.0 16.2177 -30.7827 10.4749 -5.7292 -0.193132 -0.857688 -2.69846 0.911999 -0.402727 5.29949 -0.0 -0.0 0.0 0.0 0.0 
434.957507726 722.914 -1253.1289912 -135.902114378 -88.7199335768 -131.387321109 -1.29238 -0.643853 -2.27215 -1.28965 -0.498005 -2.30848 -1.26667 0.0503962 -2.36102 -1.2743 -0.323012 -2.33938 -6.96294 3.83999 5.35213 -6.88665 3.25836 6.12281 -0.0 0.0 -0.0 12.5724 -21.3927 25.1466 -27.1105 -55.2123 34.6947 0.724136 -19.7337 0.125952 20.5408 0.26075 -2.59692 0.644543 -3.35357 2.91688 -0.0 0.0 -0.0 8.25561 -20.7138 -14.6115 -35.1118 30.1272 -46.9037 0.780926 21.1488 -0.145787 -7.03459 0.300317 -0.847095 -1.37167 5.8899 11.8325 0.0 0.0 0.0 3.75348 -5.65107 -2.24533 -18.6159 0.309542 2.82745 0.144355 -1.64401 -0.0214472 34.6947 -0.0 -0.0 -0.0 0.0 -0.0 17.7727 -28.7616 9.95682 -3.17809 -0.117744 -0.473461 -7.07898 1.51006 -1.06748 3.49403 -0.0 -0.0 0.0 0.0 0.0 
442.043813403 723.342 -1249.02189515 -138.656879831 -88.7949143481 -134.227278944 -1.32111 -0.50694 -2.22675 -1.31843 -0.364256 -2.25447 -1.30143 0.169477 -2.2774 -1.30862 -0.192227 -2.27559 -6.82685 2.10337 5.52521 -6.74107 -0.107065 5.95286 -0.0 0.0 -0.0 11.9088 -19.4264 23.7644 -22.1639 -55.7576 37.1416 0.80685 -21.786 0.155275 18.5565 0.276423 -2.34397 0.115435 -5.78848 -1.6756 -0.0 0.0 -0.0 8.57508 -19.5696 -15.2513 -34.1673 27.8521 -50.5762 0.558822 15.4735 -0.0759216 -7.47653 0.322635 -0.89902 -1.59563 5.61518 13.2577 0.0 0.0 0.0 2.38981 -4.9219 -2.12628 -17.7223 0.315796 2.69049 0.529174 2.41513 -0.0777647 36.7029 -0.0 -0.0 -0.0 0.0 -0.0 18.1926 -26.5596 9.36447 -2.72402 -0.102534 -0.405435 -7.23455 5.4946 -1.10769 3.99274 -0.0 -0.0 0.0 0.0 0.0 
441.134358975 723.342 -1250.03136987 -72.4900705878 -89.165315625 -68.0524396995 -1.32111 -0.50694 -2.22675 -1.31843 -0.364256 -2.25447 -1.30143 0.169477 -2.2774 -1.30862 -0.192227 -2.27559 -6.82685 2.10337 5.52521 -6.74107 -0.107065 5.95286 -0.0 0.0 -0.0 11.9088 -19.4264 23.7644 -22.1639 -55.7576 37.1416 0.80685 -21.786 0.155275 18.5565 0.276423 -2.34397 0.115435 -5.78848 -1.6756 -0.0 0.0 -0.0 8.57508 -19.5696 -15.2513 -34.1673 27.8521 -50.5762 0.558822 15.4735 -0.0759216 -7.47653 0.322635 -0.89902 -1.59563 5.61518 13.2577 0.0 0.0 0.0 2.38981 -4.9219 -2.12628 -17.7223 0.315796 2.69049 0.529174 2.41513 -0.0777647 36.7029 -0.0 -0.0 -0.0 0.0 -0.0 18.1926 -26.5596 9.36447 -2.72402 -0.102534 -0.405435 -7.23455 5.4946 -1.10769 3.99274 -0.0 -0.0 0.0 0.0 0.0 
446.757218894 721.784 -1246.87638006 -40.737568276 -89.6416306571 -36.5451860918 -1.36435 -0.524944 -2.10013 -1.36198 -0.390275 -2.12926 -1.34502 0.116694 -2.16157 -1.35147 -0.226069 -2.15289 -6.66778 2.0977 6.5522 -6.54585 -0.883774 6.98655 -0.0 0.0 -0.0 12.1341 -19.6662 24.2652 -18.6575 -55.7131 36.8393 0.895783 -23.9287 0.189826 18.5441 0.276494 -2.34238 -0.365681 -8.20269 -5.96195 -0.0 0.0 -0.0 8.94739 -20.3803 -15.7295 -34.8717 27.5688 -49.7332 0.442352 12.36 -0.0478986 -6.19502 0.259027 -0.747989 -1.28242 5.87156 11.21 0.0 0.0 0.0 1.13109 -4.37958 -1.81113 -17.0182 0.319219 2.58252 0.277422 4.23246 -0.0406793 37.0924 -0.0 -0.0 -0.0 0.0 -0.0 19.7143 -24.0495 8.82896 -2.0887 -0.0803482 -0.310457 -13.1735 7.11487 -2.04915 1.3882 -0.0 -0.0 0.0 0.0 0.0 
475.425338659 718.825 -1240.10275722 -176.337920164 -86.7721737237 -173.434075826 -1.4507 -0.434837 -1.90058 -1.44874 -0.31304 -1.92439 -1.43621 0.14718 -1.94411 -1.44145 -0.161643 -1.94296 -6.54704 0.649224 6.49022 -6.42181 -3.53552 6.65021 -0.0 0.0 -0.0 12.0584 -17.675 24.2132 -11.479 -55.8456 39.2963 1.14698 -29.6033 0.303089 16.8609 0.282868 -2.1275 -1.29152 -13.9228 -14.7543 -0.0 0.0 -0.0 8.42302 -20.191 -14.9351 -35.9057 26.1694 -52.3579 0.363822 10.2168 -0.0325241 -5.54948 0.228272 -0.671387 -0.699064 6.34067 7.42631 0.0 0.0 0.0 -0.858079 -2.21005 -1.32625 -16.215 0.321504 2.45929 3.63133 8.26257 -0.52648 37.0136 -0.0 -0.0 -0.0 0.0 -0.0 21.7075 -20.8679 8.91253 -1.49705 -0.0587397 -0.222229 -14.1938 8.38902 -2.22469 1.11252 -0.0 -0.0 0.0 0.0 0.0 
474.893140477 718.825 -1241.3296305 -175.051231215 -87.6106414872 -172.145874061 -1.4507 -0.434837 -1.90058 -1.44874 -0.31304 -1.92439 -1.43621 0.14718 -1.94411 -1.44145 -0.161643 -1.94296 -6.54704 0.649224 6.49022 -6.42181 -3.53552 6.65021 -0.0 0.0 -0.0 12.0584 -17.675 24.2132 -11.479 -55.8456 39.2963 1.14698 -29.6033 0.303089 16.8609 0.282868 -2.1275 -1.29152 -13.9228 -14.7543 -0.0 0.0 -0.0 8.42302 -20.191 -14.9351 -35.9057 26.1694 -52.3579 0.363822 10.2168 -0.0325241 -5.54948 0.228272 -0.671387 -0.699064 6.34067 7.42631 0.0 0.0 0.0 -0.858079 -2.21005 -1.32625 -16.215 0.321504 2.45929 3.63133 8.26257 -0.52648 37.0136 -0.0 -0.0 -0.0 0.0 -0.0 21.7075 -20.8679 8.91253 -1.49705 -0.0587397 -0.222229 -14.1938 8.38902 -2.22469 1.11252 -0.0 -0.0 0.0 0.0 0.0 
484.505094094 714.85 -1240.91169782 -175.435538741 -86.6685326629 -173.247345386 -1.21966 -0.40855 -1.78336 -1.21794 -0.294261 -1.80573 -1.207 0.130297 -1.8249 -1.21161 -0.159498 -1.82258 -6.52152 0.119083 6.62903 -6.38833 -4.62126 6.69011 -0.0 0.0 -0.0 11.896 -16.2476 23.9112 -8.58548 -55.7308 40.3137 1.35695 -33.907 0.413676 15.8783 0.283671 -2.002 -1.69027 -17.1956 -18.9043 -0.0 0.0 -0.0 8.14905 -20.1323 -14.5157 -37.2276 25.3994 -53.5073 0.387988 10.8797 -0.0369479 -5.83863 0.241941 -0.705742 -0.417175 7.57165 6.04083 0.0 0.0 0.0 -1.57726 -0.634882 -0.891587 -15.6169 0.322083 2.36754 6.41826 9.44282 -0.923263 36.6759 -0.0 -0.0 -0.0 0.0 -0.0 22.7695 -19.6099 9.72265 -1.3189 -0.0520546 -0.195705 -11.3625 8.38646 -1.77538 1.50561 -0.0 -0.0 0.0 0.0 0.0 
483.864133296 714.85 -1242.50521397 -173.524825153 -87.6497393446 -171.334351278 -1.21966 -0.40855 -1.78336 -1.21794 -0.294261 -1.80573 -1.207 0.130297 -1.8249 -1.21161 -0.159498 -1.82258 -6.52152 0.119083 6.62903 -6.38833 -4.62126 6.69011 -0.0 0.0 -0.0 11.896 -16.2476 23.9112 -8.58548 -55.7308 40.3137 1.35695 -33.907 0.413676 15.8783 0.283671 -2.002 -1.69027 -17.1956 -18.9043 -0.0 0.0 -0.0 8.14905 -20.1323 -14.5157 -37.2276 25.3994 -53.5073 0.387988 10.8797 -0.0369479 -5.83863 0.241941 -0.705742 -0.417175 7.57165 6.04083 0.0 0.0 0.0 -1.57726 -0.634882 -0.891587 -15.6169 0.322083 2.36754 6.41826 9.44282 -0.923263 36.6759 -0.0 -0.0 -0.0 0.0 -0.0 22.7695 -19.6099 9.72265 -1.3189 -0.0520546 -0.195705 -11.3625 8.38646 -1.77538 1.50561 -0.0 -0.0 0.0 0.0 0.0 
483.905342278 714.85 -1242.40510086 -173.691156822 -87.5879996953 -171.500826663 -1.21966 -0.40855 -1.78336 -1.21794 -0.294261 -1.80573 -1.207 0.130297 -1.8249 -1.21161 -0.159498 -1.82258 -6.52152 0.119083 6.62903 -6.38833 -4.62126 6.69011 -0.0 0.0 -0.0 11.896 -16.2476 23.9112 -8.58548 -55.7308 40.3137 1.35695 -33.907 0.413676 15.8783 0.283671 -2.002 -1.69027 -17.1956 -18.9043 -0.0 0.0 -0.0 8.14905 -20.1323 -14.5157 -37.2276 25.3994 -53.5073 0.387988 10.8797 -0.0369479 -5.83863 0.241941 -0.705742 -0.417175 7.57165 6.04083 0.0 0.0 0.0 -1.57726 -0.634882 -0.891587 -15.6169 0.322083 2.36754 6.41826 9.44282 -0.923263 36.6759 -0.0 -0.0 -0.0 0.0 -0.0 22.7695 -19.6099 9.72265 -1.3189 -0.0520546 -0.195705 -11.3625 8.38646 -1.77538 1.50561 -0.0 -0.0 0.0 0.0 0.0 
573.20423925 699.425 -1197.00994758 -162.245952193 -76.7672249126 -164.524192524 -0.537373 -0.195046 -1.02285 -0.5368 -0.129567 -1.03319 -0.534051 0.100147 -1.03646 -0.535544 -0.0647892 -1.03926 -1.39898 2.9231 5.43607 -1.31988 0.898653 6.11604 -0.0 0.0 -0.0 12.2204 -13.2298 24.7499 4.02069 -49.8877 46.1752 2.24505 -48.0325 1.00043 12.0314 0.266113 -1.51106 -2.99437 -24.3128 -31.0674 -0.0 0.0 -0.0 9.30274 -21.487 -16.118 -41.05 21.4348 -53.0923 0.230641 6.51809 -0.0131333 -5.96184 0.247818 -0.720359 -0.232129 4.02148 3.26667 0.0 0.0 0.0 -5.42302 2.66843 2.73734 -12.2383 0.307368 1.84944 14.0906 19.9935 -2.01983 34.5345 -0.0 -0.0 -0.0 0.0 -0.0 28.8411 -16.3024 8.56577 0.178556 0.00739347 0.0264034 -10.9969 7.92633 -1.71326 2.36779 -0.0 -0.0 0.0 0.0 0.0 
